<?xml version="1.0" encoding="utf-8"?>
<!-- Generator: Adobe Illustrator 25.4.1, SVG Export Plug-In . SVG Version: 6.00 Build 0)  -->
<svg version="1.1" xmlns="http://www.w3.org/2000/svg" xmlns:xlink="http://www.w3.org/1999/xlink" x="0px" y="0px"
	 viewBox="0 0 500.86 185.88" style="enable-background:new 0 0 500.86 185.88;" xml:space="preserve">
<style type="text/css">
	.st0{fill:#4C4C4C;}
	.st1{fill:#808080;}
	.st2{display:none;}
	.st3{display:inline;}
	.st4{fill:none;stroke:#ED1C24;stroke-width:0.3175;stroke-miterlimit:10;stroke-dasharray:2.1169;}
	.st5{display:inline;fill:none;stroke:#ED1C24;stroke-width:0.3175;stroke-miterlimit:10;stroke-dasharray:2.1169;}
	.st6{display:inline;fill:none;stroke:#ED1C24;stroke-width:0.3;stroke-miterlimit:10;stroke-dasharray:2;}
	.st7{display:inline;fill:none;stroke:#ED1C24;stroke-width:0.3;stroke-miterlimit:10;stroke-dasharray:1.9999;}
	.st8{fill:none;stroke:#ED1C24;stroke-width:0.3;stroke-miterlimit:10;}
	.st9{fill:#ED1C24;}
	.st10{display:inline;fill:#ED1C24;}
	.st11{display:inline;opacity:0.15;fill:#ED1C24;}
	.st12{display:inline;opacity:0.15;fill:#EA1F27;}
	.st13{display:inline;fill:none;stroke:#ED1C24;stroke-width:0.317;stroke-miterlimit:10;stroke-dasharray:2.1132;}
</style>
<g id="Logo">
	<g>
		<path d="M286.66,97.23V69.82h11.5v27.8c0,4.55,2.34,7.6,7.99,7.6c5.33,0,7.86-3.25,7.86-7.79v-27.6h11.5v27.41
			c0,10.72-6.43,17.21-19.35,17.21C293.15,114.44,286.66,108.08,286.66,97.23z"/>
		<path d="M330.89,80.34h10.2v4.55h0.2c2.47-3.57,5.65-5.52,10.26-5.52c7.27,0,11.56,5.2,11.56,12.6v21.63h-10.59V94.11
			c0-3.51-1.75-5.91-5.2-5.91c-3.51,0-5.84,2.92-5.84,7.01v18.38h-10.59V80.34z"/>
		<path d="M368.55,67.16h10.59v8.58h-10.59V67.16z M368.55,80.34h10.59v33.25h-10.59V80.34z"/>
		<path d="M387.46,104.83V88.92h-4.42v-8.58h4.42V69.82h10.33v10.52h6.04v8.58h-6.04v13.63c0,2.6,1.43,3.25,3.7,3.25
			c0.91,0,1.95-0.07,2.34-0.07v7.73c-0.91,0.26-2.92,0.52-5.78,0.52C391.88,113.99,387.46,111.97,387.46,104.83z"/>
		<path d="M410.39,116.32h3.64c3.12,0,4.35-1.23,4.35-3.51c0-1.43-0.65-3.38-2.01-6.88l-9.81-25.59h11.17l4.48,14.16
			c1.04,3.25,2.08,7.66,2.08,7.66h0.13c0,0,0.91-4.42,1.95-7.66l4.35-14.16h10.59l-11.5,33.71c-2.66,7.79-5.85,10.52-12.53,10.52
			h-6.88V116.32z"/>
		<path class="st0" d="M264.17,112.24V67.16l-39.04-22.54v17.29l15.3,8.83c0.55,0.31,0.57,1.17,0,1.48c0,0-18.18,10.5-18.18,10.5
			c-0.55,0.32-1.2,0.3-1.71,0l-18.18-10.5c-0.56-0.3-0.57-1.18,0-1.48l15.29-8.83l0-17.29l-39.04,22.54v45.08l0-0.21v0.21
			l14.97-8.64l0-17.66c-0.01-0.63,0.73-1.08,1.28-0.74l18.18,10.5c0.55,0.32,0.86,0.89,0.86,1.48l0,20.99
			c0.01,0.63-0.73,1.08-1.28,0.74l-15.3-8.83l-14.97,8.64l39.04,22.54l39.04-22.54l-14.97-8.64l-15.3,8.83
			c-0.54,0.33-1.3-0.1-1.28-0.74c0,0,0-20.99,0-20.99c0-0.63,0.35-1.19,0.86-1.48l18.18-10.5c0.54-0.33,1.3,0.09,1.28,0.74v17.66
			L264.17,112.24z"/>
		<path d="M221.39,141.26l39.04-22.54l-14.97-8.64l-15.3,8.83c-0.54,0.33-1.3-0.1-1.28-0.74c0,0,0-20.99,0-20.99
			c0-0.63,0.35-1.19,0.86-1.48l18.18-10.5c0.54-0.33,1.3,0.09,1.28,0.74c0,0,0,17.66,0,17.66l14.97,8.64V67.16l-42.78,24.7
			L221.39,141.26z"/>
		<path class="st1" d="M225.13,44.62v17.29l15.3,8.83c0.55,0.31,0.57,1.17,0,1.48c0,0-18.18,10.5-18.18,10.5
			c-0.55,0.32-1.2,0.3-1.71,0l-18.18-10.5c-0.56-0.3-0.57-1.18,0-1.48c0,0,15.29-8.83,15.29-8.83l0-17.29l-39.04,22.54l42.78,24.7
			l42.78-24.7L225.13,44.62z"/>
		<path class="st0" d="M212.63,118.91l-15.3-8.83l-14.97,8.64l39.04,22.54l0-49.4l-42.78-24.7v45.08l0-0.21v0.21l14.97-8.64l0-17.66
			c-0.01-0.63,0.73-1.08,1.28-0.74c0,0,18.18,10.5,18.18,10.5c0.55,0.32,0.86,0.89,0.86,1.48l0,20.99
			C213.92,118.8,213.18,119.25,212.63,118.91z"/>
		<g>
			<path d="M455.9,82.93c-0.22-0.51-0.52-0.96-0.91-1.35c-0.39-0.39-0.84-0.69-1.35-0.91c-0.51-0.22-1.06-0.33-1.65-0.33
				s-1.14,0.11-1.65,0.33c-0.51,0.22-0.96,0.52-1.35,0.91s-0.69,0.84-0.91,1.35c-0.22,0.51-0.33,1.06-0.33,1.65
				c0,0.59,0.11,1.14,0.33,1.65c0.22,0.51,0.52,0.96,0.91,1.35s0.84,0.69,1.35,0.91c0.51,0.22,1.06,0.33,1.65,0.33
				s1.14-0.11,1.65-0.33c0.51-0.22,0.96-0.52,1.35-0.91c0.39-0.39,0.69-0.84,0.91-1.35c0.22-0.51,0.33-1.06,0.33-1.65
				C456.23,83.99,456.12,83.44,455.9,82.93z M454.78,86.2c-0.29,0.49-0.68,0.88-1.17,1.17c-0.49,0.29-1.03,0.43-1.62,0.43
				c-0.59,0-1.13-0.14-1.62-0.43c-0.49-0.29-0.88-0.68-1.17-1.17c-0.29-0.49-0.43-1.03-0.43-1.62c0-0.59,0.14-1.13,0.43-1.62
				c0.29-0.49,0.68-0.88,1.17-1.17c0.49-0.29,1.03-0.43,1.62-0.43c0.59,0,1.13,0.14,1.62,0.43c0.49,0.29,0.88,0.68,1.17,1.17
				c0.29,0.49,0.43,1.03,0.43,1.62C455.21,85.17,455.07,85.71,454.78,86.2z"/>
			<path d="M453.48,84.55c0.14-0.2,0.21-0.44,0.21-0.73c0-0.28-0.07-0.52-0.2-0.7c-0.13-0.19-0.29-0.32-0.48-0.41
				c-0.19-0.09-0.36-0.13-0.52-0.13h-1.98v3.91h0.86v-1.33h0.85l0.69,1.33h0.94l-0.81-1.52C453.21,84.86,453.36,84.73,453.48,84.55z
				 M451.37,83.21h0.82c0.1,0,0.22,0.04,0.36,0.13c0.14,0.09,0.2,0.25,0.2,0.49c0,0.23-0.07,0.41-0.2,0.52
				c-0.14,0.12-0.26,0.17-0.38,0.17h-0.8V83.21z"/>
		</g>
		<g>
			<g>
				<path d="M49.51,67.14l5.16,12.62h0.22l5.16-12.62h4.89v18.78H61.1V73.7h-0.16l-4.85,12.13h-2.62l-4.85-12.18h-0.16v12.27h-3.84
					V67.14H49.51z"/>
				<path d="M74.14,85.92l6.47-18.78h5.11l6.46,18.78h-4.25l-1.39-4.28h-6.77l-1.39,4.28H74.14z M85.54,78.54l-2.31-7.11h-0.15
					l-2.31,7.11H85.54z"/>
				<path d="M101.38,85.92V67.14h6.7c5.66,0,9.12,3.52,9.12,9.37c0,5.87-3.46,9.41-9.17,9.41H101.38z M107.86,82.52
					c3.53,0,5.38-1.82,5.38-6.01c0-4.17-1.86-5.97-5.37-5.97h-2.53v11.98H107.86z"/>
				<path d="M127.08,67.14h12.63v3.27h-8.67v4.48h8.02v3.27h-8.02v4.48h8.71v3.27h-12.67V67.14z"/>
				<path d="M50.48,94.83h4.33l3.1,13.05h0.16l3.42-13.05h3.71l3.42,13.08h0.17l3.1-13.08h4.33l-5.37,18.78h-3.86l-3.57-12.28h-0.15
					l-3.56,12.28h-3.86L50.48,94.83z"/>
				<path d="M89.24,113.61h-3.96V94.83h3.96V113.61z"/>
				<path d="M98.75,94.83h15.4v3.27h-5.74v15.51h-3.92V98.1h-5.74V94.83z"/>
				<path d="M123.64,94.83h3.96v7.75h8.05v-7.75h3.96v18.78h-3.96v-7.76h-8.05v7.76h-3.96V94.83z"/>
			</g>
		</g>
	</g>
</g>
<g id="Guides" class="st2">
	<g class="st3">
		<line class="st4" x1="0" y1="67.16" x2="500.85" y2="67.16"/>
	</g>
	<line class="st5" x1="0" y1="113.6" x2="500.85" y2="113.6"/>
	<line class="st6" x1="178.61" y1="185.88" x2="178.61" y2="0"/>
	<line class="st6" x1="249.18" y1="185.88" x2="249.18" y2="0"/>
	<line class="st7" x1="330.89" y1="185.87" x2="330.89" y2="0"/>
	<line class="st7" x1="363.11" y1="185.87" x2="363.11" y2="0"/>
	<line class="st7" x1="368.55" y1="185.87" x2="368.55" y2="0"/>
	<line class="st6" x1="441.31" y1="185.87" x2="441.31" y2="0"/>
	<line class="st6" x1="447.75" y1="0" x2="447.75" y2="185.87"/>
	<line class="st6" x1="456.24" y1="0" x2="456.24" y2="185.87"/>
	<g class="st3">
		<g>
			<line class="st8" x1="172.62" y1="46.34" x2="172.62" y2="138.41"/>
			<g>
				<rect x="171.64" y="46.19" class="st9" width="1.95" height="0.3"/>
			</g>
			<g>
				<rect x="171.64" y="138.26" class="st9" width="1.95" height="0.3"/>
			</g>
		</g>
	</g>
	<path class="st10" d="M442.38,164.39l0.11,0c0.07-0.01,0.13-0.02,0.17-0.05c0.04-0.02,0.07-0.06,0.09-0.12l0.45-1.64
		c0.01-0.03,0.01-0.05,0.02-0.07c0-0.02,0.01-0.04,0.01-0.05c0-0.04-0.01-0.06-0.04-0.08c-0.03-0.01-0.06-0.02-0.12-0.02l-0.16,0.01
		v-0.05l0.04-0.01c0.03,0,0.11-0.02,0.24-0.05c0.13-0.03,0.22-0.04,0.28-0.06l0.05-0.01l0.03,0l0.02,0.01c0,0.01,0,0.01,0,0.02
		c0,0.01,0,0.01,0,0.02l-0.54,1.99c0,0.01,0,0.02-0.01,0.03c0,0.01,0,0.02,0,0.03c0,0.04,0.02,0.07,0.06,0.08s0.11,0.02,0.23,0.02
		v0.05h-0.93V164.39z"/>
	<path class="st10" d="M444.69,162.26h0.16l-0.84,2.24h-0.16L444.69,162.26z"/>
	<path class="st10" d="M445,164.45c-0.1-0.03-0.15-0.09-0.15-0.17c0-0.04,0.01-0.08,0.04-0.1c0.03-0.02,0.06-0.04,0.09-0.04
		c0.04,0,0.11,0.03,0.19,0.09c0.08,0.06,0.16,0.1,0.22,0.1c0.14,0,0.27-0.07,0.39-0.2c0.12-0.13,0.18-0.3,0.18-0.49
		c0-0.22-0.08-0.38-0.25-0.48c-0.09-0.06-0.26-0.11-0.48-0.15v-0.05l0.35-0.73h0.85l-0.08,0.24h-0.76l-0.14,0.29
		c0.24,0.04,0.43,0.12,0.56,0.25c0.13,0.13,0.19,0.3,0.19,0.52c0,0.24-0.1,0.46-0.29,0.66c-0.2,0.19-0.44,0.29-0.72,0.29
		C445.12,164.47,445.06,164.46,445,164.45z"/>
	<path class="st10" d="M443.54,166.26c-0.1,0.11-0.18,0.21-0.25,0.3c-0.11,0.16-0.2,0.35-0.27,0.57c-0.06,0.19-0.1,0.38-0.13,0.55
		c-0.02,0.17-0.04,0.32-0.04,0.44c0,0.18,0.01,0.33,0.03,0.45c0.02,0.12,0.06,0.27,0.13,0.46l-0.06,0.02c-0.12-0.2-0.2-0.4-0.25-0.6
		c-0.05-0.2-0.08-0.4-0.08-0.6c0-0.26,0.04-0.5,0.13-0.7c0.13-0.3,0.38-0.61,0.73-0.93L443.54,166.26z"/>
	<path class="st10" d="M443.55,168.88c0.02-0.03,0.05-0.04,0.09-0.04c0.03,0,0.05,0.01,0.07,0.02c0.02,0.01,0.04,0.03,0.06,0.04
		l0.02,0.02c0.01,0.01,0.01,0.01,0.02,0.01s0.02,0,0.03,0c0.05,0,0.14-0.07,0.26-0.21s0.18-0.24,0.18-0.3
		c0-0.06-0.02-0.18-0.06-0.36c-0.04-0.18-0.08-0.33-0.12-0.47c-0.05-0.19-0.1-0.33-0.14-0.39c-0.04-0.07-0.11-0.1-0.19-0.1
		c-0.01,0-0.02,0-0.03,0s-0.04,0-0.08,0.01v-0.05l0.44-0.09l0.03,0c0.03,0,0.08,0.12,0.16,0.37c0.07,0.22,0.11,0.38,0.13,0.48
		l0.07,0.39c0.11-0.19,0.2-0.34,0.25-0.44c0.1-0.2,0.16-0.34,0.16-0.42c0-0.02,0-0.04-0.01-0.05c-0.01-0.02-0.02-0.03-0.05-0.05
		l-0.03-0.01c-0.02-0.01-0.04-0.03-0.06-0.05c-0.02-0.02-0.04-0.06-0.04-0.1c0-0.03,0.01-0.06,0.03-0.08s0.05-0.03,0.1-0.03
		c0.05,0,0.1,0.02,0.13,0.05c0.03,0.03,0.05,0.09,0.05,0.16c0,0.12-0.06,0.3-0.19,0.56c-0.1,0.2-0.21,0.38-0.33,0.57
		c-0.15,0.23-0.28,0.41-0.39,0.53c-0.17,0.2-0.31,0.29-0.43,0.29c-0.04,0-0.08-0.01-0.12-0.04s-0.05-0.06-0.05-0.11
		C443.52,168.93,443.53,168.9,443.55,168.88z"/>
	<path class="st10" d="M445.13,168.98c0.11-0.12,0.2-0.23,0.26-0.31c0.1-0.16,0.19-0.34,0.25-0.55c0.06-0.18,0.1-0.36,0.13-0.53
		s0.04-0.34,0.04-0.49c0-0.19-0.02-0.36-0.05-0.51c-0.03-0.15-0.07-0.27-0.11-0.36l0.06-0.02c0.1,0.17,0.18,0.35,0.24,0.56
		c0.06,0.21,0.09,0.42,0.09,0.63c0,0.24-0.04,0.46-0.11,0.64c-0.13,0.34-0.38,0.67-0.76,0.99L445.13,168.98z"/>
	<path class="st10" d="M363.69,164.39l0.11,0c0.07-0.01,0.13-0.02,0.17-0.05c0.04-0.02,0.07-0.06,0.09-0.12l0.45-1.64
		c0.01-0.03,0.01-0.05,0.02-0.07c0-0.02,0.01-0.04,0.01-0.05c0-0.04-0.01-0.06-0.04-0.08c-0.03-0.01-0.06-0.02-0.12-0.02l-0.16,0.01
		v-0.05l0.04-0.01c0.03,0,0.11-0.02,0.24-0.05c0.13-0.03,0.22-0.04,0.28-0.06l0.05-0.01l0.03,0l0.02,0.01c0,0.01,0,0.01,0,0.02
		c0,0.01,0,0.01,0,0.02l-0.54,1.99c0,0.01,0,0.02-0.01,0.03c0,0.01,0,0.02,0,0.03c0,0.04,0.02,0.07,0.06,0.08s0.11,0.02,0.23,0.02
		v0.05h-0.93V164.39z"/>
	<path class="st10" d="M366.01,162.26h0.16l-0.84,2.24h-0.16L366.01,162.26z"/>
	<path class="st10" d="M364.86,166.26c-0.1,0.11-0.18,0.21-0.25,0.3c-0.11,0.16-0.2,0.35-0.27,0.57c-0.06,0.19-0.1,0.38-0.13,0.55
		c-0.02,0.17-0.04,0.32-0.04,0.44c0,0.18,0.01,0.33,0.03,0.45c0.02,0.12,0.06,0.27,0.13,0.46l-0.06,0.02c-0.12-0.2-0.2-0.4-0.25-0.6
		c-0.05-0.2-0.08-0.4-0.08-0.6c0-0.26,0.04-0.5,0.13-0.7c0.13-0.3,0.38-0.61,0.73-0.93L364.86,166.26z"/>
	<path class="st10" d="M364.86,168.88c0.02-0.03,0.05-0.04,0.09-0.04c0.03,0,0.05,0.01,0.07,0.02c0.02,0.01,0.04,0.03,0.06,0.04
		l0.02,0.02c0.01,0.01,0.01,0.01,0.02,0.01s0.02,0,0.03,0c0.05,0,0.14-0.07,0.26-0.21s0.18-0.24,0.18-0.3
		c0-0.06-0.02-0.18-0.06-0.36c-0.04-0.18-0.08-0.33-0.12-0.47c-0.05-0.19-0.1-0.33-0.14-0.39c-0.04-0.07-0.11-0.1-0.19-0.1
		c-0.01,0-0.02,0-0.03,0s-0.04,0-0.08,0.01v-0.05l0.44-0.09l0.03,0c0.03,0,0.08,0.12,0.16,0.37c0.07,0.22,0.11,0.38,0.13,0.48
		l0.07,0.39c0.11-0.19,0.2-0.34,0.25-0.44c0.1-0.2,0.16-0.34,0.16-0.42c0-0.02,0-0.04-0.01-0.05c-0.01-0.02-0.02-0.03-0.05-0.05
		l-0.03-0.01c-0.02-0.01-0.04-0.03-0.06-0.05c-0.02-0.02-0.04-0.06-0.04-0.1c0-0.03,0.01-0.06,0.03-0.08s0.05-0.03,0.1-0.03
		c0.05,0,0.1,0.02,0.13,0.05c0.03,0.03,0.05,0.09,0.05,0.16c0,0.12-0.06,0.3-0.19,0.56c-0.1,0.2-0.21,0.38-0.33,0.57
		c-0.15,0.23-0.28,0.41-0.39,0.53c-0.17,0.2-0.31,0.29-0.43,0.29c-0.04,0-0.08-0.01-0.12-0.04s-0.05-0.06-0.05-0.11
		C364.83,168.93,364.84,168.9,364.86,168.88z"/>
	<path class="st10" d="M366.45,168.98c0.11-0.12,0.2-0.23,0.26-0.31c0.1-0.16,0.19-0.34,0.25-0.55c0.06-0.18,0.1-0.36,0.13-0.53
		s0.04-0.34,0.04-0.49c0-0.19-0.02-0.36-0.05-0.51c-0.03-0.15-0.07-0.27-0.11-0.36l0.06-0.02c0.1,0.17,0.18,0.35,0.24,0.56
		c0.06,0.21,0.09,0.42,0.09,0.63c0,0.24-0.04,0.46-0.11,0.64c-0.13,0.34-0.38,0.67-0.76,0.99L366.45,168.98z"/>
	<path class="st10" d="M255.46,162.27c-0.1,0.11-0.18,0.21-0.25,0.3c-0.11,0.16-0.2,0.35-0.27,0.57c-0.06,0.19-0.1,0.38-0.13,0.55
		c-0.02,0.17-0.04,0.32-0.04,0.44c0,0.18,0.01,0.33,0.03,0.45c0.02,0.12,0.06,0.27,0.13,0.46l-0.06,0.02c-0.12-0.2-0.2-0.4-0.25-0.6
		c-0.05-0.2-0.08-0.4-0.08-0.6c0-0.26,0.04-0.5,0.13-0.7c0.13-0.3,0.38-0.61,0.73-0.93L255.46,162.27z"/>
	<path class="st10" d="M255.46,164.24c0.03-0.02,0.05-0.03,0.08-0.03c0.01,0,0.03,0,0.04,0.01c0.01,0,0.03,0.01,0.04,0.02l0.06,0.03
		c0.01,0,0.01,0.01,0.02,0.01s0.01,0,0.02,0c0.03,0,0.05-0.01,0.06-0.02s0.05-0.06,0.11-0.14c0.04-0.05,0.13-0.18,0.27-0.39
		c0-0.01-0.01-0.07-0.04-0.17c-0.03-0.11-0.05-0.2-0.07-0.28s-0.04-0.13-0.06-0.15c-0.02-0.02-0.05-0.04-0.09-0.04
		c-0.01,0-0.04,0-0.09,0.02c-0.03,0.01-0.06,0.01-0.09,0.02l-0.01-0.05l0.18-0.06c0.05-0.02,0.09-0.03,0.13-0.04
		c0.04-0.01,0.07-0.01,0.1-0.01c0.05,0,0.08,0.01,0.1,0.04c0.04,0.04,0.06,0.13,0.09,0.26l0.03,0.18c0.1-0.15,0.17-0.25,0.23-0.31
		c0.05-0.05,0.09-0.1,0.14-0.12c0.04-0.03,0.08-0.04,0.12-0.04c0.04,0,0.07,0.01,0.09,0.02c0.04,0.02,0.06,0.06,0.06,0.11
		c0,0.04-0.01,0.07-0.03,0.09s-0.05,0.03-0.08,0.03c-0.01,0-0.02,0-0.03,0c-0.01,0-0.02-0.01-0.03-0.01l-0.04-0.02
		c-0.01-0.01-0.02-0.01-0.03-0.01c-0.01,0-0.02,0-0.02,0c-0.05,0-0.12,0.06-0.2,0.19s-0.13,0.2-0.13,0.22
		c0,0.02,0.01,0.07,0.03,0.16c0.02,0.09,0.04,0.18,0.07,0.28c0.02,0.09,0.04,0.16,0.06,0.19c0.02,0.06,0.05,0.09,0.08,0.09
		c0.03,0,0.06-0.02,0.09-0.05s0.08-0.09,0.14-0.17l0.04,0.03c-0.05,0.08-0.09,0.16-0.14,0.22c-0.09,0.11-0.18,0.17-0.27,0.17
		c-0.05,0-0.1-0.03-0.13-0.08c-0.02-0.03-0.04-0.08-0.05-0.15l-0.1-0.4l-0.33,0.44c-0.07,0.08-0.12,0.13-0.15,0.15
		c-0.04,0.03-0.08,0.04-0.13,0.04c-0.07,0-0.12-0.02-0.14-0.07c-0.01-0.02-0.02-0.05-0.02-0.08
		C255.43,164.29,255.44,164.26,255.46,164.24z"/>
	<path class="st10" d="M257.05,164.99c0.11-0.12,0.2-0.23,0.26-0.31c0.1-0.16,0.19-0.34,0.25-0.55c0.06-0.18,0.1-0.36,0.13-0.53
		s0.04-0.34,0.04-0.49c0-0.19-0.02-0.36-0.05-0.51c-0.03-0.15-0.07-0.27-0.11-0.36l0.06-0.02c0.1,0.17,0.18,0.35,0.24,0.56
		c0.06,0.21,0.09,0.42,0.09,0.63c0,0.24-0.04,0.46-0.11,0.64c-0.13,0.34-0.38,0.67-0.76,0.99L257.05,164.99z"/>
	<path class="st10" d="M272.19,164.39l0.11,0c0.07-0.01,0.13-0.02,0.17-0.05c0.04-0.02,0.07-0.06,0.09-0.12l0.45-1.64
		c0.01-0.03,0.01-0.05,0.02-0.07c0-0.02,0.01-0.04,0.01-0.05c0-0.04-0.01-0.06-0.04-0.08c-0.03-0.01-0.06-0.02-0.12-0.02l-0.16,0.01
		v-0.05l0.04-0.01c0.03,0,0.11-0.02,0.24-0.05c0.13-0.03,0.22-0.04,0.28-0.06l0.05-0.01l0.03,0l0.02,0.01c0,0.01,0,0.01,0,0.02
		c0,0.01,0,0.01,0,0.02l-0.54,1.99c0,0.01,0,0.02-0.01,0.03c0,0.01,0,0.02,0,0.03c0,0.04,0.02,0.07,0.06,0.08s0.11,0.02,0.23,0.02
		v0.05h-0.93V164.39z"/>
	<path class="st10" d="M274.11,164.43c-0.04-0.04-0.05-0.08-0.05-0.13c0-0.05,0.02-0.09,0.05-0.13s0.08-0.05,0.13-0.05
		s0.09,0.02,0.13,0.05s0.05,0.08,0.05,0.13c0,0.05-0.02,0.09-0.05,0.13c-0.04,0.04-0.08,0.05-0.13,0.05S274.14,164.46,274.11,164.43
		z"/>
	<path class="st10" d="M274.73,164.45c-0.1-0.03-0.15-0.09-0.15-0.17c0-0.04,0.01-0.08,0.04-0.1c0.03-0.02,0.06-0.04,0.09-0.04
		c0.04,0,0.11,0.03,0.19,0.09c0.08,0.06,0.16,0.1,0.22,0.1c0.14,0,0.27-0.07,0.39-0.2c0.12-0.13,0.18-0.3,0.18-0.49
		c0-0.22-0.08-0.38-0.25-0.48c-0.09-0.06-0.26-0.11-0.48-0.15v-0.05l0.35-0.73h0.85l-0.08,0.24h-0.76l-0.14,0.29
		c0.24,0.04,0.43,0.12,0.56,0.25c0.13,0.13,0.19,0.3,0.19,0.52c0,0.24-0.1,0.46-0.29,0.66c-0.2,0.19-0.44,0.29-0.72,0.29
		C274.85,164.47,274.78,164.46,274.73,164.45z"/>
	<path class="st10" d="M278.06,162.27c-0.1,0.11-0.18,0.21-0.25,0.3c-0.11,0.16-0.2,0.35-0.27,0.57c-0.06,0.19-0.1,0.38-0.13,0.55
		c-0.02,0.17-0.04,0.32-0.04,0.44c0,0.18,0.01,0.33,0.03,0.45c0.02,0.12,0.06,0.27,0.13,0.46l-0.06,0.02c-0.12-0.2-0.2-0.4-0.25-0.6
		c-0.05-0.2-0.08-0.4-0.08-0.6c0-0.26,0.04-0.5,0.13-0.7c0.13-0.3,0.38-0.61,0.73-0.93L278.06,162.27z"/>
	<path class="st10" d="M278.07,164.24c0.03-0.02,0.05-0.03,0.08-0.03c0.01,0,0.03,0,0.04,0.01c0.01,0,0.03,0.01,0.04,0.02l0.06,0.03
		c0.01,0,0.01,0.01,0.02,0.01s0.01,0,0.02,0c0.03,0,0.05-0.01,0.06-0.02c0.01-0.01,0.05-0.06,0.11-0.14
		c0.04-0.05,0.13-0.18,0.27-0.39c0-0.01-0.01-0.07-0.04-0.17c-0.03-0.11-0.05-0.2-0.07-0.28s-0.04-0.13-0.06-0.15
		c-0.02-0.02-0.05-0.04-0.09-0.04c-0.01,0-0.04,0-0.09,0.02c-0.03,0.01-0.06,0.01-0.09,0.02l-0.01-0.05l0.18-0.06
		c0.05-0.02,0.09-0.03,0.13-0.04c0.04-0.01,0.07-0.01,0.1-0.01c0.05,0,0.08,0.01,0.1,0.04c0.04,0.04,0.06,0.13,0.09,0.26l0.03,0.18
		c0.1-0.15,0.17-0.25,0.23-0.31c0.05-0.05,0.09-0.1,0.14-0.12c0.04-0.03,0.08-0.04,0.12-0.04c0.04,0,0.07,0.01,0.09,0.02
		c0.04,0.02,0.06,0.06,0.06,0.11c0,0.04-0.01,0.07-0.03,0.09s-0.05,0.03-0.08,0.03c-0.01,0-0.02,0-0.03,0
		c-0.01,0-0.02-0.01-0.03-0.01l-0.04-0.02c-0.01-0.01-0.02-0.01-0.03-0.01c-0.01,0-0.02,0-0.02,0c-0.05,0-0.12,0.06-0.2,0.19
		s-0.13,0.2-0.13,0.22c0,0.02,0.01,0.07,0.03,0.16c0.02,0.09,0.04,0.18,0.07,0.28c0.02,0.09,0.04,0.16,0.06,0.19
		c0.02,0.06,0.05,0.09,0.08,0.09c0.03,0,0.06-0.02,0.09-0.05s0.08-0.09,0.14-0.17l0.04,0.03c-0.05,0.08-0.09,0.16-0.14,0.22
		c-0.09,0.11-0.18,0.17-0.27,0.17c-0.05,0-0.1-0.03-0.13-0.08c-0.02-0.03-0.04-0.08-0.05-0.15l-0.1-0.4l-0.33,0.44
		c-0.07,0.08-0.12,0.13-0.15,0.15c-0.04,0.03-0.08,0.04-0.13,0.04c-0.07,0-0.12-0.02-0.14-0.07c-0.01-0.02-0.02-0.05-0.02-0.08
		C278.03,164.29,278.05,164.26,278.07,164.24z"/>
	<path class="st10" d="M279.65,164.99c0.11-0.12,0.2-0.23,0.26-0.31c0.1-0.16,0.19-0.34,0.25-0.55c0.06-0.18,0.1-0.36,0.13-0.53
		s0.04-0.34,0.04-0.49c0-0.19-0.02-0.36-0.05-0.51c-0.03-0.15-0.07-0.27-0.11-0.36l0.06-0.02c0.1,0.17,0.18,0.35,0.24,0.56
		c0.06,0.21,0.09,0.42,0.09,0.63c0,0.24-0.04,0.46-0.11,0.64c-0.13,0.34-0.38,0.67-0.76,0.99L279.65,164.99z"/>
	<path class="st10" d="M346.18,162.27c-0.1,0.11-0.18,0.21-0.25,0.3c-0.11,0.16-0.2,0.35-0.27,0.57c-0.06,0.19-0.1,0.38-0.13,0.55
		c-0.02,0.17-0.04,0.32-0.04,0.44c0,0.18,0.01,0.33,0.03,0.45c0.02,0.12,0.06,0.27,0.13,0.46l-0.06,0.02c-0.12-0.2-0.2-0.4-0.25-0.6
		c-0.05-0.2-0.08-0.4-0.08-0.6c0-0.26,0.04-0.5,0.13-0.7c0.13-0.3,0.38-0.61,0.73-0.93L346.18,162.27z"/>
	<path class="st10" d="M346.19,164.89c0.02-0.03,0.05-0.04,0.09-0.04c0.03,0,0.05,0.01,0.07,0.02c0.02,0.01,0.04,0.03,0.06,0.04
		l0.02,0.02c0.01,0.01,0.01,0.01,0.02,0.01s0.02,0,0.03,0c0.05,0,0.14-0.07,0.26-0.21s0.18-0.24,0.18-0.3
		c0-0.06-0.02-0.18-0.06-0.36c-0.04-0.18-0.08-0.33-0.12-0.47c-0.05-0.19-0.1-0.33-0.14-0.39c-0.04-0.07-0.11-0.1-0.19-0.1
		c-0.01,0-0.02,0-0.03,0s-0.04,0-0.08,0.01v-0.05l0.44-0.09l0.03,0c0.03,0,0.08,0.12,0.16,0.37c0.07,0.22,0.11,0.38,0.13,0.48
		l0.07,0.39c0.11-0.19,0.2-0.34,0.25-0.44c0.1-0.2,0.16-0.34,0.16-0.42c0-0.02,0-0.04-0.01-0.05c-0.01-0.02-0.02-0.03-0.05-0.05
		l-0.03-0.01c-0.02-0.01-0.04-0.03-0.06-0.05c-0.02-0.02-0.04-0.06-0.04-0.1c0-0.03,0.01-0.06,0.03-0.08s0.05-0.03,0.1-0.03
		c0.05,0,0.1,0.02,0.13,0.05c0.03,0.03,0.05,0.09,0.05,0.16c0,0.12-0.06,0.3-0.19,0.56c-0.1,0.2-0.21,0.38-0.33,0.57
		c-0.15,0.23-0.28,0.41-0.39,0.53c-0.17,0.2-0.31,0.29-0.43,0.29c-0.04,0-0.08-0.01-0.12-0.04s-0.05-0.06-0.05-0.11
		C346.15,164.95,346.16,164.92,346.19,164.89z"/>
	<path class="st10" d="M347.77,164.99c0.11-0.12,0.2-0.23,0.26-0.31c0.1-0.16,0.19-0.34,0.25-0.55c0.06-0.18,0.1-0.36,0.13-0.53
		s0.04-0.34,0.04-0.49c0-0.19-0.02-0.36-0.05-0.51c-0.03-0.15-0.07-0.27-0.11-0.36l0.06-0.02c0.1,0.17,0.18,0.35,0.24,0.56
		c0.06,0.21,0.09,0.42,0.09,0.63c0,0.24-0.04,0.46-0.11,0.64c-0.13,0.34-0.38,0.67-0.76,0.99L347.77,164.99z"/>
	<path class="st10" d="M163.24,96.35c0.03,0.01,0.05,0.02,0.08,0.04l0.08,0.05c0.04,0.03,0.07,0.05,0.1,0.06
		c0.04,0.02,0.09,0.03,0.13,0.03c0.11,0,0.21-0.05,0.29-0.15c0.09-0.1,0.13-0.23,0.13-0.39c0-0.18-0.05-0.32-0.14-0.41
		c-0.1-0.09-0.23-0.14-0.41-0.14c-0.01,0-0.02,0-0.02,0c-0.01,0-0.02,0-0.04,0l0-0.05c0.29-0.04,0.5-0.11,0.62-0.22
		c0.12-0.11,0.18-0.21,0.18-0.32c0-0.07-0.02-0.14-0.06-0.21c-0.04-0.06-0.12-0.1-0.24-0.1c-0.07,0-0.13,0.02-0.2,0.05
		c-0.06,0.04-0.12,0.09-0.17,0.16l-0.05-0.02c0.06-0.12,0.14-0.2,0.23-0.26c0.09-0.05,0.19-0.08,0.3-0.08
		c0.14,0,0.26,0.04,0.35,0.11s0.13,0.18,0.13,0.3c0,0.13-0.05,0.23-0.16,0.32c-0.07,0.06-0.19,0.11-0.36,0.18v0.01
		c0.08,0.04,0.14,0.08,0.19,0.13c0.08,0.09,0.12,0.22,0.12,0.38c0,0.22-0.08,0.41-0.26,0.58c-0.18,0.17-0.4,0.26-0.66,0.26
		c-0.09,0-0.17-0.01-0.23-0.03c-0.1-0.03-0.15-0.09-0.15-0.18c0-0.03,0.01-0.06,0.03-0.08c0.02-0.02,0.06-0.04,0.11-0.04
		C163.19,96.34,163.21,96.34,163.24,96.35z"/>
	<path class="st10" d="M165.67,94.46c-0.1,0.11-0.18,0.21-0.25,0.3c-0.11,0.16-0.2,0.35-0.27,0.57c-0.06,0.19-0.1,0.38-0.13,0.55
		c-0.02,0.17-0.04,0.32-0.04,0.44c0,0.18,0.01,0.33,0.03,0.45c0.02,0.12,0.06,0.27,0.13,0.46l-0.06,0.02c-0.12-0.2-0.2-0.4-0.25-0.6
		c-0.05-0.2-0.08-0.4-0.08-0.6c0-0.26,0.04-0.5,0.13-0.7c0.13-0.3,0.38-0.61,0.73-0.93L165.67,94.46z"/>
	<path class="st10" d="M165.68,97.08c0.02-0.03,0.05-0.04,0.09-0.04c0.03,0,0.05,0.01,0.07,0.02c0.02,0.01,0.04,0.03,0.06,0.04
		l0.02,0.02c0.01,0.01,0.01,0.01,0.02,0.01s0.02,0,0.03,0c0.05,0,0.14-0.07,0.26-0.21s0.18-0.24,0.18-0.3
		c0-0.06-0.02-0.18-0.06-0.36c-0.04-0.18-0.08-0.33-0.12-0.47c-0.05-0.19-0.1-0.33-0.14-0.39c-0.04-0.07-0.11-0.1-0.19-0.1
		c-0.01,0-0.02,0-0.03,0s-0.04,0-0.08,0.01v-0.05l0.44-0.09l0.03,0c0.03,0,0.08,0.12,0.16,0.37c0.07,0.22,0.11,0.38,0.13,0.48
		l0.07,0.39c0.11-0.19,0.2-0.34,0.25-0.44c0.1-0.2,0.16-0.34,0.16-0.42c0-0.02,0-0.04-0.01-0.05c-0.01-0.02-0.02-0.03-0.05-0.05
		l-0.03-0.01c-0.02-0.01-0.04-0.03-0.06-0.05c-0.02-0.02-0.04-0.06-0.04-0.1c0-0.03,0.01-0.06,0.03-0.08s0.05-0.03,0.1-0.03
		c0.05,0,0.1,0.02,0.13,0.05c0.03,0.03,0.05,0.09,0.05,0.16c0,0.12-0.06,0.3-0.19,0.56c-0.1,0.2-0.21,0.38-0.33,0.57
		c-0.15,0.23-0.28,0.41-0.39,0.53c-0.17,0.2-0.31,0.29-0.43,0.29c-0.04,0-0.08-0.01-0.12-0.04s-0.05-0.06-0.05-0.11
		C165.65,97.14,165.66,97.11,165.68,97.08z"/>
	<path class="st10" d="M167.26,97.18c0.11-0.12,0.2-0.23,0.26-0.31c0.1-0.16,0.19-0.34,0.25-0.55c0.06-0.18,0.1-0.36,0.13-0.53
		s0.04-0.34,0.04-0.49c0-0.19-0.02-0.36-0.05-0.51c-0.03-0.15-0.07-0.27-0.11-0.36l0.06-0.02c0.1,0.17,0.18,0.35,0.24,0.56
		c0.06,0.21,0.09,0.42,0.09,0.63c0,0.24-0.04,0.46-0.11,0.64c-0.13,0.34-0.38,0.67-0.76,0.99L167.26,97.18z"/>
	<line class="st7" x1="264.17" y1="0" x2="264.17" y2="185.88"/>
	<line class="st7" x1="286.66" y1="185.88" x2="286.66" y2="0"/>
	<path class="st10" d="M467.13,177.2h0.27v0.97h1.17v-0.97h0.26v2.19h-0.26v-0.98h-1.17v0.98h-0.27V177.2z"/>
	<path class="st10" d="M469.24,178.58c0-0.5,0.29-0.85,0.74-0.85c0.34,0,0.71,0.21,0.71,0.82v0.11h-1.19
		c0.01,0.35,0.22,0.54,0.51,0.54c0.2,0,0.35-0.08,0.41-0.26l0.24,0.07c-0.08,0.25-0.32,0.41-0.65,0.41
		C469.53,179.42,469.24,179.08,469.24,178.58z M470.43,178.43c0-0.28-0.18-0.48-0.45-0.48c-0.29,0-0.47,0.23-0.49,0.48H470.43z"/>
	<path class="st10" d="M471.02,177.3c0-0.09,0.08-0.17,0.18-0.17c0.1,0,0.18,0.08,0.18,0.17s-0.08,0.17-0.18,0.17
		C471.1,177.47,471.02,177.39,471.02,177.3z M471.07,177.74h0.25v1.64h-0.25V177.74z"/>
	<path class="st10" d="M471.77,179.71l0.2-0.14c0.07,0.09,0.17,0.25,0.47,0.25c0.27,0,0.46-0.12,0.46-0.4v-0.33h-0.02
		c-0.06,0.09-0.16,0.28-0.48,0.28c-0.4,0-0.7-0.29-0.7-0.8c0-0.5,0.29-0.83,0.7-0.83c0.32,0,0.42,0.2,0.48,0.28h0.03v-0.26h0.24
		v1.69c0,0.42-0.32,0.6-0.71,0.6C472.07,180.03,471.87,179.88,471.77,179.71z M472.9,178.55c0-0.35-0.16-0.6-0.47-0.6
		c-0.32,0-0.48,0.27-0.48,0.6c0,0.34,0.16,0.58,0.48,0.58C472.74,179.13,472.9,178.92,472.9,178.55z"/>
	<path class="st10" d="M473.86,179.39h-0.25v-2.19h0.25v0.8h0.02c0.08-0.17,0.22-0.28,0.48-0.28c0.33,0,0.56,0.2,0.56,0.62v1.04
		h-0.25v-1.03c0-0.26-0.14-0.41-0.38-0.41c-0.25,0-0.43,0.16-0.43,0.45V179.39z"/>
	<path class="st10" d="M476.09,177.96h-0.35v0.96c0,0.21,0.11,0.25,0.22,0.25c0.06,0,0.09-0.01,0.11-0.01l0.05,0.23
		c-0.03,0.01-0.09,0.03-0.19,0.03c-0.21,0-0.44-0.14-0.44-0.42v-1.03h-0.25v-0.21h0.25v-0.39h0.25v0.39h0.35V177.96z"/>
	<path class="st10" d="M477.24,178.57c0-0.51,0.3-0.85,0.74-0.85s0.74,0.34,0.74,0.85c0,0.51-0.3,0.85-0.74,0.85
		S477.24,179.08,477.24,178.57z M478.47,178.57c0-0.33-0.15-0.62-0.49-0.62c-0.34,0-0.49,0.29-0.49,0.62s0.15,0.62,0.49,0.62
		C478.32,179.19,478.47,178.9,478.47,178.57z"/>
	<path class="st10" d="M479.83,177.96h-0.37v1.43h-0.25v-1.43h-0.26v-0.21h0.26v-0.23c0-0.28,0.23-0.42,0.46-0.42
		c0.12,0,0.2,0.03,0.24,0.04l-0.07,0.22c-0.03-0.01-0.07-0.03-0.14-0.03c-0.17,0-0.24,0.08-0.24,0.25v0.17h0.37V177.96z"/>
	<path class="st10" d="M480.95,178.02c0-0.47,0.38-0.85,0.86-0.85c0.47,0,0.85,0.38,0.85,0.85c0,0.47-0.38,0.85-0.85,0.85
		C481.34,178.88,480.95,178.49,480.95,178.02z M482.46,178.02c0-0.36-0.29-0.65-0.65-0.65c-0.36,0-0.65,0.29-0.65,0.65
		c0,0.36,0.29,0.65,0.65,0.65C482.17,178.67,482.46,178.38,482.46,178.02z M481.51,177.62h0.4c0.1,0,0.24,0.08,0.24,0.25
		c0,0.11-0.06,0.19-0.13,0.23l0.16,0.31h-0.19l-0.14-0.27h-0.17v0.27h-0.17V177.62z M481.84,178.01c0.05,0,0.12-0.05,0.12-0.14
		c0-0.1-0.07-0.12-0.11-0.12h-0.17v0.26H481.84z"/>
	<path class="st10" d="M467.2,181.7h1.32v0.23h-1.32V181.7z M467.2,182.33h1.32v0.23h-1.32V182.33z"/>
	<path class="st10" d="M470.17,182.99h-0.25v-2.19h0.25v0.8h0.02c0.08-0.17,0.22-0.28,0.48-0.28c0.33,0,0.56,0.2,0.56,0.62v1.04
		h-0.25v-1.03c0-0.26-0.14-0.41-0.38-0.41c-0.25,0-0.43,0.16-0.43,0.45V182.99z"/>
	<path class="st10" d="M471.62,182.18c0-0.5,0.29-0.85,0.74-0.85c0.34,0,0.71,0.21,0.71,0.82v0.11h-1.19
		c0.01,0.35,0.22,0.54,0.51,0.54c0.2,0,0.35-0.08,0.41-0.26l0.24,0.07c-0.08,0.25-0.32,0.41-0.65,0.41
		C471.91,183.02,471.62,182.68,471.62,182.18z M472.8,182.03c0-0.28-0.18-0.48-0.45-0.48c-0.29,0-0.47,0.23-0.49,0.48H472.8z"/>
	<path class="st10" d="M473.39,180.9c0-0.09,0.08-0.17,0.18-0.17c0.1,0,0.18,0.08,0.18,0.17s-0.08,0.17-0.18,0.17
		C473.47,181.07,473.39,180.99,473.39,180.9z M473.44,181.34h0.25v1.64h-0.25V181.34z"/>
	<path class="st10" d="M474.14,183.31l0.2-0.14c0.07,0.09,0.17,0.25,0.47,0.25c0.27,0,0.46-0.12,0.46-0.4v-0.33h-0.02
		c-0.06,0.09-0.16,0.28-0.48,0.28c-0.4,0-0.7-0.29-0.7-0.8c0-0.5,0.29-0.83,0.7-0.83c0.32,0,0.42,0.2,0.48,0.28h0.03v-0.26h0.24
		v1.69c0,0.42-0.32,0.6-0.71,0.6C474.45,183.63,474.25,183.48,474.14,183.31z M475.28,182.15c0-0.35-0.16-0.6-0.47-0.6
		c-0.32,0-0.48,0.27-0.48,0.6c0,0.34,0.16,0.58,0.48,0.58C475.11,182.73,475.28,182.52,475.28,182.15z"/>
	<path class="st10" d="M476.23,182.99h-0.25v-2.19h0.25v0.8h0.02c0.08-0.17,0.22-0.28,0.48-0.28c0.33,0,0.56,0.2,0.56,0.62v1.04
		h-0.25v-1.03c0-0.26-0.14-0.41-0.38-0.41c-0.25,0-0.43,0.16-0.43,0.45V182.99z"/>
	<path class="st10" d="M478.47,181.56h-0.35v0.96c0,0.21,0.11,0.25,0.22,0.25c0.06,0,0.09-0.01,0.11-0.01l0.05,0.23
		c-0.04,0.01-0.09,0.03-0.19,0.03c-0.21,0-0.44-0.14-0.44-0.42v-1.03h-0.25v-0.21h0.25v-0.39h0.25v0.39h0.35V181.56z"/>
	<path class="st10" d="M479.61,182.17c0-0.51,0.3-0.85,0.74-0.85s0.74,0.34,0.74,0.85c0,0.51-0.3,0.85-0.74,0.85
		S479.61,182.68,479.61,182.17z M480.85,182.17c0-0.33-0.15-0.62-0.49-0.62c-0.34,0-0.49,0.29-0.49,0.62s0.15,0.62,0.49,0.62
		C480.69,182.79,480.85,182.5,480.85,182.17z"/>
	<path class="st10" d="M482.21,181.56h-0.37v1.43h-0.25v-1.43h-0.26v-0.21h0.26v-0.23c0-0.28,0.23-0.42,0.46-0.42
		c0.12,0,0.2,0.03,0.24,0.04l-0.07,0.22c-0.03-0.01-0.07-0.03-0.14-0.03c-0.17,0-0.24,0.08-0.24,0.25v0.17h0.37V181.56z"/>
	<path class="st10" d="M484.12,181.56h-0.35v0.96c0,0.21,0.11,0.25,0.22,0.25c0.06,0,0.09-0.01,0.11-0.01l0.05,0.23
		c-0.04,0.01-0.09,0.03-0.19,0.03c-0.21,0-0.44-0.14-0.44-0.42v-1.03h-0.25v-0.21h0.25v-0.39h0.25v0.39h0.35V181.56z"/>
	<path class="st10" d="M484.78,182.99h-0.25v-2.19h0.25v0.8h0.02c0.08-0.17,0.22-0.28,0.48-0.28c0.33,0,0.56,0.2,0.56,0.62v1.04
		h-0.25v-1.03c0-0.26-0.14-0.41-0.38-0.41c-0.25,0-0.43,0.16-0.43,0.45V182.99z"/>
	<path class="st10" d="M486.22,182.18c0-0.5,0.29-0.85,0.74-0.85c0.34,0,0.71,0.21,0.71,0.82v0.11h-1.19
		c0.01,0.35,0.22,0.54,0.51,0.54c0.2,0,0.35-0.08,0.41-0.26l0.24,0.07c-0.08,0.25-0.32,0.41-0.65,0.41
		C486.51,183.02,486.22,182.68,486.22,182.18z M487.41,182.03c0-0.28-0.18-0.48-0.45-0.48c-0.29,0-0.47,0.23-0.49,0.48H487.41z"/>
	<path class="st10" d="M488.84,180.9c0-0.09,0.08-0.17,0.18-0.17c0.1,0,0.18,0.08,0.18,0.17s-0.08,0.17-0.18,0.17
		C488.92,181.07,488.84,180.99,488.84,180.9z M488.89,181.34h0.25v1.64h-0.25V181.34z"/>
	<path class="st10" d="M489.83,180.99c0,0.17-0.1,0.4-0.27,0.54l-0.14-0.11c0.09-0.13,0.17-0.26,0.17-0.42v-0.2h0.24V180.99z"/>
	<path class="st10" d="M490.86,181.78c-0.04-0.11-0.13-0.24-0.35-0.24c-0.2,0-0.35,0.1-0.35,0.24c0,0.13,0.09,0.19,0.28,0.24
		l0.24,0.06c0.29,0.07,0.44,0.22,0.44,0.44c0,0.28-0.26,0.49-0.64,0.49c-0.34,0-0.57-0.15-0.62-0.43l0.24-0.06
		c0.04,0.18,0.17,0.27,0.38,0.27c0.24,0,0.38-0.12,0.38-0.26c0-0.11-0.08-0.19-0.24-0.23l-0.27-0.06c-0.3-0.07-0.44-0.22-0.44-0.45
		c0-0.28,0.26-0.47,0.6-0.47c0.33,0,0.5,0.16,0.58,0.39L490.86,181.78z"/>
	<path class="st10" d="M492.26,182.17c0-0.52,0.29-0.85,0.7-0.85c0.32,0,0.42,0.2,0.47,0.28h0.02v-0.81h0.25v2.19h-0.24v-0.25h-0.03
		c-0.06,0.09-0.16,0.29-0.48,0.29C492.55,183.02,492.26,182.69,492.26,182.17z M493.46,182.16c0-0.37-0.16-0.62-0.47-0.62
		c-0.32,0-0.48,0.27-0.48,0.62c0,0.35,0.16,0.63,0.48,0.63C493.3,182.79,493.46,182.54,493.46,182.16z"/>
	<path class="st10" d="M494.12,182.17c0-0.51,0.3-0.85,0.74-0.85s0.74,0.34,0.74,0.85c0,0.51-0.3,0.85-0.74,0.85
		S494.12,182.68,494.12,182.17z M495.36,182.17c0-0.33-0.15-0.62-0.49-0.62c-0.34,0-0.49,0.29-0.49,0.62s0.15,0.62,0.49,0.62
		C495.21,182.79,495.36,182.5,495.36,182.17z"/>
	<path class="st10" d="M496.71,181.56h-0.35v0.96c0,0.21,0.11,0.25,0.22,0.25c0.06,0,0.09-0.01,0.11-0.01l0.05,0.23
		c-0.04,0.01-0.09,0.03-0.19,0.03c-0.21,0-0.44-0.14-0.44-0.42v-1.03h-0.25v-0.21h0.25v-0.39h0.25v0.39h0.35V181.56z"/>
	<path class="st10" d="M366.54,163.68c0.08-0.15,0.19-0.26,0.33-0.35c0.14-0.09,0.28-0.14,0.42-0.14c0.14,0,0.25,0.05,0.33,0.14
		c0.09,0.09,0.13,0.22,0.13,0.36c0,0.21-0.08,0.41-0.25,0.58c-0.17,0.17-0.36,0.26-0.57,0.26c-0.19,0-0.34-0.07-0.47-0.21
		c-0.12-0.14-0.18-0.33-0.18-0.55c0-0.39,0.14-0.73,0.42-1.04c0.28-0.31,0.6-0.46,0.95-0.46c0.13,0,0.26,0.02,0.39,0.06l-0.22,0.22
		c-0.13-0.08-0.27-0.12-0.42-0.12c-0.22,0-0.4,0.09-0.55,0.28c-0.09,0.11-0.16,0.26-0.23,0.44c-0.06,0.18-0.09,0.35-0.09,0.5V163.68
		z M366.56,163.85c0.07,0.36,0.25,0.54,0.53,0.54c0.12,0,0.23-0.05,0.31-0.14c0.08-0.09,0.13-0.2,0.13-0.34
		c0-0.16-0.04-0.28-0.12-0.39c-0.08-0.1-0.19-0.15-0.31-0.15C366.83,163.38,366.65,163.53,366.56,163.85z"/>
	<line class="st7" x1="325.5" y1="185.87" x2="325.5" y2="0"/>
	<path class="st10" d="M326.08,164.39l0.11,0c0.07-0.01,0.13-0.02,0.17-0.05c0.04-0.02,0.07-0.06,0.09-0.12l0.45-1.64
		c0.01-0.03,0.01-0.05,0.02-0.07c0-0.02,0.01-0.04,0.01-0.05c0-0.04-0.01-0.06-0.04-0.08c-0.03-0.01-0.06-0.02-0.12-0.02l-0.16,0.01
		v-0.05l0.04-0.01c0.03,0,0.11-0.02,0.24-0.05c0.13-0.03,0.22-0.04,0.28-0.06l0.05-0.01l0.03,0l0.02,0.01c0,0.01,0,0.01,0,0.02
		c0,0.01,0,0.01,0,0.02l-0.54,1.99c0,0.01,0,0.02-0.01,0.03c0,0.01,0,0.02,0,0.03c0,0.04,0.02,0.07,0.06,0.08s0.11,0.02,0.23,0.02
		v0.05h-0.93V164.39z"/>
	<path class="st10" d="M328.4,162.26h0.16l-0.84,2.24h-0.16L328.4,162.26z"/>
	<path class="st10" d="M327.25,166.26c-0.1,0.11-0.18,0.21-0.25,0.3c-0.11,0.16-0.2,0.35-0.27,0.57c-0.06,0.19-0.1,0.38-0.13,0.55
		c-0.02,0.17-0.04,0.32-0.04,0.44c0,0.18,0.01,0.33,0.03,0.45c0.02,0.12,0.06,0.27,0.13,0.46l-0.06,0.02c-0.12-0.2-0.2-0.4-0.25-0.6
		c-0.05-0.2-0.08-0.4-0.08-0.6c0-0.26,0.04-0.5,0.13-0.7c0.13-0.3,0.38-0.61,0.73-0.93L327.25,166.26z"/>
	<path class="st10" d="M327.26,168.88c0.02-0.03,0.05-0.04,0.09-0.04c0.03,0,0.05,0.01,0.07,0.02c0.02,0.01,0.04,0.03,0.06,0.04
		l0.02,0.02c0.01,0.01,0.01,0.01,0.02,0.01s0.02,0,0.03,0c0.05,0,0.14-0.07,0.26-0.21s0.18-0.24,0.18-0.3
		c0-0.06-0.02-0.18-0.06-0.36c-0.04-0.18-0.08-0.33-0.12-0.47c-0.05-0.19-0.1-0.33-0.14-0.39c-0.04-0.07-0.11-0.1-0.19-0.1
		c-0.01,0-0.02,0-0.03,0s-0.04,0-0.08,0.01v-0.05l0.44-0.09l0.03,0c0.03,0,0.08,0.12,0.16,0.37c0.07,0.22,0.11,0.38,0.13,0.48
		l0.07,0.39c0.11-0.19,0.2-0.34,0.25-0.44c0.1-0.2,0.16-0.34,0.16-0.42c0-0.02,0-0.04-0.01-0.05c-0.01-0.02-0.02-0.03-0.05-0.05
		l-0.03-0.01c-0.02-0.01-0.04-0.03-0.06-0.05c-0.02-0.02-0.04-0.06-0.04-0.1c0-0.03,0.01-0.06,0.03-0.08s0.05-0.03,0.1-0.03
		c0.05,0,0.1,0.02,0.13,0.05c0.03,0.03,0.05,0.09,0.05,0.16c0,0.12-0.06,0.3-0.19,0.56c-0.1,0.2-0.21,0.38-0.33,0.57
		c-0.15,0.23-0.28,0.41-0.39,0.53c-0.17,0.2-0.31,0.29-0.43,0.29c-0.04,0-0.08-0.01-0.12-0.04s-0.05-0.06-0.05-0.11
		C327.22,168.93,327.24,168.9,327.26,168.88z"/>
	<path class="st10" d="M328.84,168.98c0.11-0.12,0.2-0.23,0.26-0.31c0.1-0.16,0.19-0.34,0.25-0.55c0.06-0.18,0.1-0.36,0.13-0.53
		s0.04-0.34,0.04-0.49c0-0.19-0.02-0.36-0.05-0.51c-0.03-0.15-0.07-0.27-0.11-0.36l0.06-0.02c0.1,0.17,0.18,0.35,0.24,0.56
		c0.06,0.21,0.09,0.42,0.09,0.63c0,0.24-0.04,0.46-0.11,0.64c-0.13,0.34-0.38,0.67-0.76,0.99L328.84,168.98z"/>
	<path class="st10" d="M328.93,163.68c0.08-0.15,0.19-0.26,0.33-0.35c0.14-0.09,0.28-0.14,0.42-0.14c0.14,0,0.25,0.05,0.33,0.14
		c0.09,0.09,0.13,0.22,0.13,0.36c0,0.21-0.08,0.41-0.25,0.58c-0.17,0.17-0.36,0.26-0.57,0.26c-0.19,0-0.34-0.07-0.47-0.21
		c-0.12-0.14-0.18-0.33-0.18-0.55c0-0.39,0.14-0.73,0.42-1.04c0.28-0.31,0.6-0.46,0.95-0.46c0.13,0,0.26,0.02,0.39,0.06l-0.22,0.22
		c-0.13-0.08-0.27-0.12-0.42-0.12c-0.22,0-0.4,0.09-0.55,0.28c-0.09,0.11-0.16,0.26-0.23,0.44c-0.06,0.18-0.09,0.35-0.09,0.5V163.68
		z M328.95,163.85c0.07,0.36,0.25,0.54,0.53,0.54c0.12,0,0.23-0.05,0.31-0.14c0.08-0.09,0.13-0.2,0.13-0.34
		c0-0.16-0.04-0.28-0.12-0.39c-0.08-0.1-0.19-0.15-0.31-0.15C329.22,163.38,329.04,163.53,328.95,163.85z"/>
	<line class="st6" x1="178.61" y1="185.88" x2="178.61" y2="0"/>
	<path class="st11" d="M286.66,27.41V0h11.5v27.8c0,4.55,2.34,7.6,7.99,7.6c5.33,0,7.86-3.25,7.86-7.79V0h11.5v27.41
		c0,10.72-6.43,17.21-19.35,17.21C293.15,44.62,286.66,38.26,286.66,27.41z"/>
	<path class="st11" d="M325.5,158.47v27.41H314v-27.8c0-4.55-2.34-7.6-7.99-7.6c-5.33,0-7.86,3.25-7.86,7.79v27.6h-11.5v-27.41
		c0-10.72,6.43-17.21,19.35-17.21C319,141.26,325.5,147.63,325.5,158.47z"/>
	<path class="st11" d="M139.75,94.6V67.2h11.5v27.8c0,4.55,2.34,7.6,7.99,7.6c5.33,0,7.86-3.25,7.86-7.79V67.2h11.5V94.6
		c0,10.72-6.43,17.21-19.35,17.21C146.25,111.82,139.75,105.45,139.75,94.6z"/>
	<path class="st11" d="M473.45,74.76h27.41v11.5h-27.8c-4.55,0-7.6,2.34-7.6,7.99c0,5.33,3.25,7.86,7.79,7.86h27.6v11.5h-27.41
		c-10.72,0-17.21-6.43-17.21-19.35C456.24,81.25,462.6,74.76,473.45,74.76z"/>
	<path class="st12" d="M27.41,113.6H0l0-11.5h27.8c4.55,0,7.6-2.34,7.6-7.99c0-5.33-3.25-7.86-7.79-7.86H0l0-11.5h27.41
		c10.72,0,17.21,6.43,17.21,19.35C44.62,107.1,38.25,113.6,27.41,113.6z"/>
	<line class="st13" x1="0" y1="44.62" x2="498.73" y2="44.62"/>
	<line class="st13" x1="0" y1="141.26" x2="500.82" y2="141.26"/>
</g>
</svg>
